<svg width="91" height="89" viewBox="0 0 91 89" fill="none" xmlns="http://www.w3.org/2000/svg">
<path d="M64.3277 10.7415H58.0519C57.1842 10.7415 56.4829 10.054 56.4829 9.20692C56.4829 8.35985 57.1842 7.67236 58.0519 7.67236H64.3277C65.1954 7.67236 65.8968 8.35985 65.8968 9.20692C65.8968 10.054 65.1954 10.7415 64.3277 10.7415Z" fill="#C0A9DD"/>
<path d="M51.776 10.7415H45.5002C44.6325 10.7415 43.9312 10.054 43.9312 9.20692C43.9312 8.35985 44.6325 7.67236 45.5002 7.67236H51.776C52.6437 7.67236 53.345 8.35985 53.345 9.20692C53.345 10.054 52.6437 10.7415 51.776 10.7415Z" fill="#C0A9DD"/>
<path d="M39.2244 10.7415H29.8105C28.9428 10.7415 28.2415 10.054 28.2415 9.20692C28.2415 8.35985 28.9428 7.67236 29.8105 7.67236H39.2244C40.0921 7.67236 40.7934 8.35985 40.7934 9.20692C40.7934 10.054 40.0919 10.7415 39.2244 10.7415Z" fill="#C0A9DD"/>
<path d="M54.914 70.5862H42.3623C41.4946 70.5862 40.7932 69.8987 40.7932 69.0516C40.7932 68.2046 41.4946 67.5171 42.3623 67.5171H54.914C55.7817 67.5171 56.4831 68.2046 56.4831 69.0516C56.4829 69.8987 55.7815 70.5862 54.914 70.5862Z" fill="#C0A9DD"/>
<path d="M36.0862 70.5862H26.6723C25.8046 70.5862 25.1033 69.8987 25.1033 69.0516C25.1033 68.2046 25.8046 67.5171 26.6723 67.5171H36.0862C36.9539 67.5171 37.6552 68.2046 37.6552 69.0516C37.6552 69.8987 36.9539 70.5862 36.0862 70.5862Z" fill="#C0A9DD"/>
<path d="M67.4656 70.5862H59.6208C58.7531 70.5862 58.0518 69.8987 58.0518 69.0516C58.0518 68.2046 58.7531 67.5171 59.6208 67.5171H67.4656C68.3333 67.5171 69.0347 68.2046 69.0347 69.0516C69.0347 69.8987 68.3333 70.5862 67.4656 70.5862Z" fill="#C0A9DD"/>
<path d="M31.3795 30.6897H25.1037C24.236 30.6897 23.5347 30.0022 23.5347 29.1552C23.5347 28.3081 24.236 27.6206 25.1037 27.6206H31.3795C32.2472 27.6206 32.9485 28.3081 32.9485 29.1552C32.9485 30.0022 32.247 30.6897 31.3795 30.6897Z" fill="#C0A9DD"/>
<path d="M43.931 30.6897H37.6552C36.7875 30.6897 36.0862 30.0022 36.0862 29.1552C36.0862 28.3081 36.7875 27.6206 37.6552 27.6206H43.931C44.7987 27.6206 45.5001 28.3081 45.5001 29.1552C45.5001 30.0022 44.7987 30.6897 43.931 30.6897Z" fill="#C0A9DD"/>
<path d="M56.4828 30.6897H50.207C49.3393 30.6897 48.6379 30.0022 48.6379 29.1552C48.6379 28.3081 49.3393 27.6206 50.207 27.6206H56.4828C57.3505 27.6206 58.0518 28.3081 58.0518 29.1552C58.0518 30.0022 57.3505 30.6897 56.4828 30.6897Z" fill="#C0A9DD"/>
<path d="M65.8968 50.638H59.621C58.7533 50.638 58.052 49.9505 58.052 49.1034C58.052 48.2563 58.7533 47.5688 59.621 47.5688H65.8968C66.7645 47.5688 67.4659 48.2563 67.4659 49.1034C67.4657 49.9506 66.7644 50.638 65.8968 50.638Z" fill="#C0A9DD"/>
<path d="M53.3448 50.638H47.069C46.2013 50.638 45.5 49.9505 45.5 49.1034C45.5 48.2563 46.2013 47.5688 47.069 47.5688H53.3448C54.2125 47.5688 54.9139 48.2563 54.9139 49.1034C54.9139 49.9506 54.2125 50.638 53.3448 50.638Z" fill="#C0A9DD"/>
<path d="M40.7931 50.638H34.5173C33.6496 50.638 32.9482 49.9505 32.9482 49.1034C32.9482 48.2563 33.6496 47.5688 34.5173 47.5688H40.7931C41.6608 47.5688 42.3621 48.2563 42.3621 49.1034C42.3621 49.9506 41.6608 50.638 40.7931 50.638Z" fill="#C0A9DD"/>
<path d="M78.4483 10.7415H70.6035C69.7358 10.7415 69.0344 10.054 69.0344 9.20692C69.0344 8.35985 69.7358 7.67236 70.6035 7.67236H78.4483C79.316 7.67236 80.0173 8.35985 80.0173 9.20692C80.0173 10.054 79.316 10.7415 78.4483 10.7415Z" fill="#C0A9DD"/>
<path d="M23.5347 10.7415H12.5519C11.6842 10.7415 10.9829 10.054 10.9829 9.20692C10.9829 8.35985 11.6842 7.67236 12.5519 7.67236H23.5347C24.4024 7.67236 25.1037 8.35985 25.1037 9.20692C25.1037 10.054 24.4022 10.7415 23.5347 10.7415Z" fill="#C0A9DD"/>
<path d="M78.4484 70.5862H72.1726C71.3049 70.5862 70.6035 69.8987 70.6035 69.0516C70.6035 68.2046 71.3049 67.5171 72.1726 67.5171H78.4484C79.3161 67.5171 80.0174 68.2046 80.0174 69.0516C80.0174 69.8987 79.3161 70.5862 78.4484 70.5862Z" fill="#C0A9DD"/>
<path d="M20.3968 70.5862H12.5519C11.6842 70.5862 10.9829 69.8987 10.9829 69.0516C10.9829 68.2046 11.6842 67.5171 12.5519 67.5171H20.3968C21.2645 67.5171 21.9658 68.2046 21.9658 69.0516C21.9656 69.8987 21.2643 70.5862 20.3968 70.5862Z" fill="#C0A9DD"/>
<path d="M80.0175 30.6897H62.759C61.8913 30.6897 61.1899 30.0022 61.1899 29.1552C61.1899 28.3081 61.8913 27.6206 62.759 27.6206H80.0175C80.8852 27.6206 81.5866 28.3081 81.5866 29.1552C81.5866 30.0022 80.8852 30.6897 80.0175 30.6897Z" fill="#C0A9DD"/>
<path d="M80.0174 50.638H72.1726C71.3049 50.638 70.6035 49.9505 70.6035 49.1034C70.6035 48.2563 71.3049 47.5688 72.1726 47.5688H80.0174C80.8851 47.5688 81.5864 48.2563 81.5864 49.1034C81.5863 49.9506 80.8851 50.638 80.0174 50.638Z" fill="#C0A9DD"/>
<path d="M28.2416 50.638H10.9829C10.1152 50.638 9.41382 49.9505 9.41382 49.1034C9.41382 48.2563 10.1152 47.5688 10.9829 47.5688H28.2414C29.1091 47.5688 29.8104 48.2563 29.8104 49.1034C29.8104 49.9506 29.1091 50.638 28.2416 50.638Z" fill="#C0A9DD"/>
<path d="M18.8277 30.6897H10.9829C10.1152 30.6897 9.41382 30.0022 9.41382 29.1552C9.41382 28.3081 10.1152 27.6206 10.9829 27.6206H18.8277C19.6954 27.6206 20.3967 28.3081 20.3967 29.1552C20.3967 30.0022 19.6954 30.6897 18.8277 30.6897Z" fill="#C0A9DD"/>
<path d="M12.5519 82.8621H6.27588V3.06894C6.27588 1.37342 7.68016 0 9.41396 0C11.1478 0 12.5519 1.37342 12.5519 3.06894V82.8621Z" fill="#C0A9DD"/>
<path d="M84.7243 82.8621H78.4485V3.06894C78.4483 1.37342 79.8526 0 81.5862 0C83.3198 0 84.7241 1.37342 84.7241 3.06894V82.8621H84.7243Z" fill="#C0A9DD"/>
<path d="M18.8276 89.0002H0V85.9312C0 84.2357 1.40428 82.8623 3.1379 82.8623H15.6897C17.4233 82.8623 18.8276 84.2357 18.8276 85.9312V89.0002Z" fill="#C0A9DD"/>
<path d="M90.9999 89.0002H72.1724V85.9312C72.1724 84.2357 73.5766 82.8623 75.3103 82.8623H87.862C89.5957 82.8623 90.9999 84.2357 90.9999 85.9312V89.0002Z" fill="#C0A9DD"/>
<path d="M26.6723 13.8103C24.9387 13.8103 23.5344 12.4369 23.5344 10.7414V7.67245C23.5344 5.97693 24.9387 4.60352 26.6723 4.60352C28.4059 4.60352 29.8102 5.97693 29.8102 7.67245V10.7414C29.8102 12.4371 28.4059 13.8103 26.6723 13.8103Z" fill="#C0A9DD"/>
<path d="M42.362 13.8103C40.6284 13.8103 39.2241 12.4369 39.2241 10.7414V7.67245C39.2241 5.97693 40.6284 4.60352 42.362 4.60352C44.0956 4.60352 45.4999 5.97693 45.4999 7.67245V10.7414C45.4999 12.4371 44.0956 13.8103 42.362 13.8103Z" fill="#C0A9DD"/>
<path d="M54.914 13.8103C53.1804 13.8103 51.7761 12.4369 51.7761 10.7414V7.67245C51.7761 5.97693 53.1804 4.60352 54.914 4.60352C56.6476 4.60352 58.0519 5.97693 58.0519 7.67245V10.7414C58.0519 12.4371 56.6476 13.8103 54.914 13.8103Z" fill="#C0A9DD"/>
<path d="M67.4655 13.8103C65.7319 13.8103 64.3276 12.4369 64.3276 10.7414V7.67245C64.3276 5.97693 65.7319 4.60352 67.4655 4.60352C69.1992 4.60352 70.6034 5.97693 70.6034 7.67245V10.7414C70.6034 12.4371 69.1993 13.8103 67.4655 13.8103Z" fill="#C0A9DD"/>
<path d="M21.9655 33.7586C20.2319 33.7586 18.8276 32.3851 18.8276 30.6896V27.6207C18.8276 25.9252 20.2319 24.5518 21.9655 24.5518C23.6992 24.5518 25.1034 25.9252 25.1034 27.6207V30.6896C25.1034 32.3851 23.6993 33.7586 21.9655 33.7586Z" fill="#C0A9DD"/>
<path d="M34.5173 33.7586C32.7837 33.7586 31.3794 32.3851 31.3794 30.6896V27.6207C31.3794 25.9252 32.7837 24.5518 34.5173 24.5518C36.2509 24.5518 37.6552 25.9252 37.6552 27.6207V30.6896C37.6552 32.3851 36.2509 33.7586 34.5173 33.7586Z" fill="#C0A9DD"/>
<path d="M47.0691 33.7586C45.3354 33.7586 43.9312 32.3851 43.9312 30.6896V27.6207C43.9312 25.9252 45.3354 24.5518 47.0691 24.5518C48.8027 24.5518 50.207 25.9252 50.207 27.6207V30.6896C50.207 32.3851 48.8027 33.7586 47.0691 33.7586Z" fill="#C0A9DD"/>
<path d="M59.6206 33.7586C57.8869 33.7586 56.4827 32.3851 56.4827 30.6896V27.6207C56.4827 25.9252 57.8869 24.5518 59.6206 24.5518C61.3542 24.5518 62.7585 25.9252 62.7585 27.6207V30.6896C62.7585 32.3851 61.3544 33.7586 59.6206 33.7586Z" fill="#C0A9DD"/>
<path d="M56.4826 53.7068C54.749 53.7068 53.3447 52.3334 53.3447 50.6379V47.5689C53.3447 45.8734 54.749 44.5 56.4826 44.5C58.2162 44.5 59.6205 45.8734 59.6205 47.5689V50.6379C59.6205 52.3334 58.2164 53.7068 56.4826 53.7068Z" fill="#C0A9DD"/>
<path d="M43.9309 53.7068C42.1972 53.7068 40.793 52.3334 40.793 50.6379V47.5689C40.793 45.8734 42.1972 44.5 43.9309 44.5C45.6645 44.5 47.0688 45.8734 47.0688 47.5689V50.6379C47.0689 52.3334 45.6647 53.7068 43.9309 53.7068Z" fill="#C0A9DD"/>
<path d="M31.3794 53.7068C29.6457 53.7068 28.2415 52.3334 28.2415 50.6379V47.5689C28.2415 45.8734 29.6457 44.5 31.3794 44.5C33.113 44.5 34.5173 45.8734 34.5173 47.5689V50.6379C34.5173 52.3334 33.113 53.7068 31.3794 53.7068Z" fill="#C0A9DD"/>
<path d="M69.0346 53.7068C67.301 53.7068 65.8967 52.3334 65.8967 50.6379V47.5689C65.8967 45.8734 67.301 44.5 69.0346 44.5C70.7683 44.5 72.1725 45.8734 72.1725 47.5689V50.6379C72.1725 52.3334 70.7683 53.7068 69.0346 53.7068Z" fill="#C0A9DD"/>
<path d="M69.0346 73.6551C67.301 73.6551 65.8967 72.2816 65.8967 70.5861V67.5172C65.8967 65.8217 67.301 64.4482 69.0346 64.4482C70.7683 64.4482 72.1725 65.8217 72.1725 67.5172V70.5861C72.1725 72.2816 70.7683 73.6551 69.0346 73.6551Z" fill="#C0A9DD"/>
<path d="M56.4826 73.6551C54.749 73.6551 53.3447 72.2816 53.3447 70.5861V67.5172C53.3447 65.8217 54.749 64.4482 56.4826 64.4482C58.2162 64.4482 59.6205 65.8217 59.6205 67.5172V70.5861C59.6205 72.2816 58.2164 73.6551 56.4826 73.6551Z" fill="#C0A9DD"/>
<path d="M39.2241 73.6551C37.4905 73.6551 36.0862 72.2816 36.0862 70.5861V67.5172C36.0862 65.8217 37.4905 64.4482 39.2241 64.4482C40.9577 64.4482 42.362 65.8217 42.362 67.5172V70.5861C42.362 72.2816 40.9577 73.6551 39.2241 73.6551Z" fill="#C0A9DD"/>
<path d="M23.5346 73.6551C21.801 73.6551 20.3967 72.2816 20.3967 70.5861V67.5172C20.3967 65.8217 21.801 64.4482 23.5346 64.4482C25.2682 64.4482 26.6725 65.8217 26.6725 67.5172V70.5861C26.6725 72.2816 25.2682 73.6551 23.5346 73.6551Z" fill="#C0A9DD"/>
</svg>
